<?xml version="1.0" encoding="UTF-8" standalone="no"?>
<!-- Created with Inkscape (http://www.inkscape.org/) -->

<svg
   xmlns:dc="http://purl.org/dc/elements/1.1/"
   xmlns:cc="http://creativecommons.org/ns#"
   xmlns:rdf="http://www.w3.org/1999/02/22-rdf-syntax-ns#"
   xmlns:svg="http://www.w3.org/2000/svg"
   xmlns="http://www.w3.org/2000/svg"
   xmlns:sodipodi="http://sodipodi.sourceforge.net/DTD/sodipodi-0.dtd"
   xmlns:inkscape="http://www.inkscape.org/namespaces/inkscape"
   width="600"
   height="100"
   id="svg2"
   version="1.1"
   inkscape:version="0.48.5 r10040"
   sodipodi:docname="Furious-SIG.svg">
  <defs
     id="defs4" />
  <sodipodi:namedview
     id="base"
     pagecolor="#ffffff"
     bordercolor="#666666"
     borderopacity="1.0"
     inkscape:pageopacity="0.0"
     inkscape:pageshadow="2"
     inkscape:zoom="1.4212846"
     inkscape:cx="262.451"
     inkscape:cy="159.39812"
     inkscape:document-units="px"
     inkscape:current-layer="layer1"
     showgrid="false"
     inkscape:snap-page="false"
     inkscape:snap-center="false"
     inkscape:window-width="1366"
     inkscape:window-height="705"
     inkscape:window-x="-8"
     inkscape:window-y="-8"
     inkscape:window-maximized="1"
     showguides="true"
     inkscape:guide-bbox="true" />
  <metadata
     id="metadata7">
    <rdf:RDF>
      <cc:Work
         rdf:about="">
        <dc:format>image/svg+xml</dc:format>
        <dc:type
           rdf:resource="http://purl.org/dc/dcmitype/StillImage" />
        <dc:title></dc:title>
      </cc:Work>
    </rdf:RDF>
  </metadata>
  <g
     inkscape:label="Layer 1"
     inkscape:groupmode="layer"
     id="layer1"
     transform="translate(0,-952.36218)">
    <rect
       y="952.36218"
       x="2.8381446e-006"
       height="100"
       width="600"
       id="rect3524"
       style="fill:#eeeeee;fill-opacity:1;fill-rule:nonzero;stroke:none" />
    <g
       id="g4034"
       transform="matrix(1.0324212,0,0,1.0324212,108.70524,100.91032)">
      <path
         transform="matrix(1.1765235,0,0,1.1765235,-63.483705,822.4247)"
         d="m 42.825279,43.579395 c 0,19.709791 -15.977942,35.687733 -35.6877325,35.687733 -19.7097905,0 -35.6877325,-15.977942 -35.6877325,-35.687733 0,-19.70979 15.977942,-35.6877324 35.6877325,-35.6877324 19.7097905,0 35.6877325,15.9779424 35.6877325,35.6877324 z"
         sodipodi:ry="35.687733"
         sodipodi:rx="35.687733"
         sodipodi:cy="43.579395"
         sodipodi:cx="7.1375465"
         id="path3449"
         style="fill:#00aad4;fill-opacity:1;fill-rule:nonzero;stroke:none"
         sodipodi:type="arc" />
      <path
         inkscape:connector-curvature="0"
         id="path3095-4"
         d="m -27.040281,840.49632 c -0.07596,0.58392 -0.236267,1.17623 -0.550627,1.72071 l -3.303761,5.71276 c -0.0805,0.14042 -0.183237,0.25074 -0.275313,0.37856 -0.05705,0.1309 -0.133131,0.25145 -0.206485,0.37855 -0.892467,1.54586 -2.701739,2.22005 -4.336187,1.72071 l -0.03441,-0.0344 -0.03441,0 c -0.236682,-0.0785 -0.497921,-0.18049 -0.722698,-0.30973 l -3.95763,-2.30575 -0.03441,0 c -2.053705,-0.68284 -4.381083,0.18438 -5.506268,2.13367 -1.066288,1.84695 -0.697687,4.09116 0.722698,5.54068 l 4.267358,2.44342 c 1.798181,1.03815 2.414752,3.32936 1.376566,5.1277 -0.88762,1.53735 -2.674283,2.23902 -4.301771,1.75513 l -0.03441,0.0688 -0.447385,-0.24089 c -0.115675,-0.0529 -0.231758,-0.14217 -0.344141,-0.20649 l -12.974143,-7.46787 c -0.11235,-0.0639 -0.206695,-0.1327 -0.309728,-0.20648 -0.02147,-0.0243 -0.04758,-0.0523 -0.06883,-0.0688 l -1.858365,-1.06685 c -2.227341,-1.28601 -5.046263,-0.54098 -6.332209,1.6863 -1.285955,2.22729 -0.541023,5.08091 1.686295,6.36662 l 4.886812,2.82196 c 0.291162,0.0958 0.586286,0.22119 0.860356,0.37855 l 15.211063,8.77563 c 2.104705,1.21512 2.798198,3.88334 1.583052,5.98806 -1.215178,2.10472 -3.883349,2.83248 -5.988065,1.61747 l -12.148204,-7.0205 c -1.839841,-0.29326 -3.723724,0.55481 -4.714741,2.27134 -1.205587,2.08831 -0.63984,4.71144 1.273324,6.09131 l 0.172071,0.10321 6.469864,3.75114 c 2.053916,1.18594 2.768882,3.76216 1.583052,5.81599 -1.18583,2.05396 -3.796494,2.76878 -5.850409,1.58306 l -12.423516,-7.15814 c -1.973282,-0.51197 -4.127146,0.31567 -5.196541,2.16809 -1.285966,2.22728 -0.506599,5.04627 1.720709,6.33221 l 5.471854,3.1661 c 0.07786,0.0286 0.167115,0.0614 0.240898,0.10321 l 5.196541,3.02845 0.481798,0.27531 c 0.786769,0.45448 1.039253,1.41555 0.585041,2.20251 -0.454245,0.78684 -1.450164,1.07394 -2.236921,0.61945 l -0.481799,-0.27531 -5.196539,-2.99403 c -0.0099,0 -0.02484,-0.0344 -0.03441,-0.0344 l -0.344142,-0.17207 c -2.227329,-1.28593 -5.046274,-0.50658 -6.332208,1.72071 -1.044848,1.80967 -0.724639,3.98591 0.619455,5.43745 0.115715,0.0682 0.227573,0.13917 0.344142,0.20648 20.955533,12.09869 47.781981,4.91853 59.88066,-16.03701 10.3911562,-17.99799 6.513815,-40.29045 -8.052915,-53.8926 z"
         style="fill:#80d5ea;fill-opacity:1;fill-rule:nonzero;stroke:#eeeeee;stroke-width:4.42479038;stroke-miterlimit:4;stroke-opacity:1;stroke-dasharray:none" />
    </g>
    <path
       style="fill:#00aad4;fill-opacity:1;fill-rule:nonzero;stroke:#ffffff;stroke-width:2.4526031;stroke-miterlimit:4;stroke-opacity:1;stroke-dasharray:none"
       d="m 281.15486,923.75029 0,176.83271 -128.62371,0 0,-21.1385 -0.12264,0 c -0.54218,-2.628 -2.8631,-4.5986 -5.65631,-4.5986 l -14.04115,0 c -1.89467,-0.7234 -3.23437,-2.5524 -3.23437,-4.706 0,-2.0481 1.2102,-3.7978 2.95845,-4.5832 l 15.57403,0 c 2.40855,0 4.33804,-1.4243 4.33804,-3.1885 0,-1.7641 -1.92949,-3.1883 -4.33804,-3.1883 l -34.78098,0 c -0.34519,0 -0.69012,0.037 -1.01169,0.092 -0.32157,-0.055 -0.65118,-0.092 -0.99637,-0.092 l -28.036333,0 c -2.295724,-0.4671 -4.016132,-2.4824 -4.016132,-4.9206 0,-2.7864 2.241357,-5.0278 5.027835,-5.0278 l 60.85521,0 0,-0.184 18.45585,0 c 2.9478,0 5.31908,-2.1954 5.31908,-4.9358 0,-2.7404 -2.37128,-4.9512 -5.31908,-4.9512 l -42.568,0 c -0.14743,0 -0.30033,0.01 -0.44453,0.015 l -5.39573,0 c -0.14419,-0.011 -0.2971,-0.015 -0.44453,-0.015 l -5.30376,0 c -2.66478,-0.1341 -4.76724,-2.3131 -4.76724,-5.0125 0,-2.4164 1.68994,-4.4149 3.95482,-4.9052 l 41.86287,0 c 0.96944,0 1.87071,-0.2711 2.65188,-0.7204 1.5749,-0.664 2.66721,-2.2248 2.66721,-4.0468 l 0,-5.9782 c 0,-0.2168 -0.0159,-0.4356 -0.046,-0.6438 0.0274,-0.2198 0.046,-0.447 0.046,-0.6745 0,-2.9477 -2.37129,-5.319 -5.31909,-5.319 l -25.56838,0 c -1.35723,-0.8991 -2.25333,-2.4311 -2.25333,-4.1848 0,-2.0776 1.25711,-3.8455 3.05042,-4.614 l 22.60993,0 c 0.25926,0 0.51412,-0.01 0.76644,-0.031 l 1.39492,0 c 2.9478,0 5.31909,-2.3713 5.31909,-5.31908 0,-0.33587 -0.033,-0.66273 -0.092,-0.98108 0.0581,-0.37732 0.092,-0.75546 0.092,-1.14963 l 0,-9.15128 c 0,-0.39657 -0.0332,-0.78539 -0.092,-1.16497 0.0611,-0.32369 0.092,-0.65446 0.092,-0.99635 0,-2.94784 -2.37129,-5.31914 -5.31909,-5.31914 l -41.15775,0 c -1.80593,-0.76096 -3.06575,-2.5394 -3.06575,-4.62927 0,-2.57963 1.91866,-4.68243 4.41469,-4.98184 l 2.19201,0 c 0.22214,0 0.44415,-0.0196 0.65914,-0.0459 l 12.44696,0 c 0.21482,0.0263 0.43699,0.0459 0.65914,0.0459 l 42.56798,0 c 2.9478,0 5.3191,-2.3713 5.3191,-5.31907 0,-2.94784 -2.3713,-5.31907 -5.3191,-5.31907 l -24.06617,0 -17.96531,0 c -2.78647,0 -5.02784,-2.24141 -5.02784,-5.02786 0,-2.37288 1.62897,-4.33971 3.8322,-4.87452 l 26.31949,0 c 2.56906,0 4.7062,-1.801 5.2118,-4.21547 l 0.10729,0 0,-1.10367 0,-19.7281 123.62652,0 z"
       id="rect3262"
       inkscape:connector-curvature="0" />
    <rect
       style="fill:#00aad4;fill-opacity:1;fill-rule:nonzero;stroke:none"
       id="rect4016"
       width="418.47406"
       height="100"
       x="181.52592"
       y="952.36218" />
    <text
       xml:space="preserve"
       style="font-size:67.78806305px;font-style:normal;font-variant:normal;font-weight:normal;font-stretch:normal;line-height:125%;letter-spacing:0px;word-spacing:0px;fill:#ffffff;fill-opacity:1;stroke:none;font-family:Ventography Personal Use Only;-inkscape-font-specification:Ventography Personal Use Only"
       x="164.51964"
       y="997.46332"
       id="text3158"
       sodipodi:linespacing="125%"><tspan
         sodipodi:role="line"
         id="tspan3160"
         x="164.51964"
         y="997.46332">furious - a wiki editor</tspan></text>
    <text
       xml:space="preserve"
       style="font-size:59.50613403px;font-style:normal;font-variant:normal;font-weight:normal;font-stretch:normal;line-height:125%;letter-spacing:0px;word-spacing:0px;fill:#ffffff;fill-opacity:1;stroke:none;font-family:Ventography Personal Use Only;-inkscape-font-specification:Ventography Personal Use Only"
       x="245.72809"
       y="1031.8175"
       id="text4018"
       sodipodi:linespacing="125%"><tspan
         sodipodi:role="line"
         id="tspan4020"
         x="245.72809"
         y="1031.8175">unique graphics</tspan></text>
  </g>
</svg>
